<svg height="32" viewBox="0 0 159 32" width="159" xmlns="http://www.w3.org/2000/svg"><g fill="none" fill-rule="evenodd" transform="translate(-1 -1)"><path d="m4.26315789 10.00875h4.35789474l-.28421052 2.04h.06315789c.21052737-.2762514.49473505-.5578111.85263158-.8446875s.75262942-.5471863 1.18421052-.7809375.8999975-.42499926 1.4052632-.57375c.5052656-.14875074 1.0315762-.223125 1.5789473-.223125 1.1368478 0 2.1421009.19656053 3.0157895.5896875.8736886.393127 1.594734.9456214 2.1631579 1.6575s.9631568 1.5565576 1.1842105 2.5340625c.2210538.9775049.2473693 2.0506192.0789474 3.219375-.1473692 1.0837554-.4526293 2.1196826-.9157895 3.1078125s-1.0473649 1.8646837-1.7526316 2.6296875c-.7052666.7650038-1.521048 1.3759352-2.4473684 1.8328125s-1.9368366.6853125-3.0315789.6853125c-.9894787 0-1.89473276-.154061-2.7157895-.4621875s-1.44210316-.8340588-1.86315789-1.5778125h-.0631579l-1.26315789 8.925h-4.73684211zm3.28421053 7.745625c-.16842189 1.1687558.026313 2.1143714.58421053 2.836875.55789752.7225036 1.4368361 1.08375 2.63684215 1.08375 1.200006 0 2.1842066-.3612464 2.9526315-1.08375s1.2368413-1.6681192 1.4052632-2.836875-.0315761-2.1143714-.6-2.836875-1.4526256-1.08375-2.6526316-1.08375-2.17894357.3612464-2.93684209 1.08375c-.75789853.7225036-1.22105179 1.6681192-1.38947369 2.836875zm23.90526318 5.80125h-.0631579c-.6315821.8287541-1.4105217 1.4237482-2.3368421 1.785s-1.8736794.541875-2.8421053.541875c-.715793 0-1.3894705-.1009365-2.0210526-.3028125s-1.173682-.5046855-1.6263158-.9084375-.7842095-.903122-.9947368-1.498125c-.2105274-.595003-.2631585-1.2856211-.1578948-2.071875.1894746-1.3387567.6894696-2.3746838 1.5-3.1078125s1.7684155-1.2749982 2.8736842-1.625625 2.2631519-.5578122 3.4736842-.6215625c1.2105324-.0637503 2.3105214-.095625 3.3-.095625.1052637-.8500043-.1052605-1.524685-.6315789-2.0240625s-1.1999959-.7490625-2.0210526-.7490625c-.7789513 0-1.5105229.1646859-2.1947369.4940625-.6842139.3293766-1.3210497.7809346-1.9105263 1.3546875l-2.1473684-2.61375c.9894786-.8287541 2.0999938-1.4503104 3.3315789-1.8646875 1.2315851-.41437707 2.4789411-.6215625 3.7421053-.6215625 1.3894806 0 2.510522.17531075 3.3631579.5259375.8526358.3506268 1.4999978.8659341 1.9421052 1.5459375.4421075.6800034.6999997 1.5140576.7736843 2.5021875.0736845.9881299.0157904 2.130306-.1736843 3.4265625l-1.0736842 7.873125h-4.3578947zm-.5052632-4.845c-.3578965 0-.8052605.0159373-1.3421052.0478125-.5368448.0318752-1.0631554.1221868-1.5789474.2709375-.5157921.1487507-.9684191.3718735-1.3578947.669375-.3894757.2975015-.6157892.7118723-.6789474 1.243125-.0421055.2975015-.0105269.5471865.0947368.7490625s.2526307.3771868.4421053.5259375.4157881.2549997.6789474.31875c.2631592.0637503.5210513.095625.7736842.095625.4631602 0 .9210503-.0637494 1.3736842-.19125.4526338-.1275006.863156-.3081238 1.2315789-.541875s.6789461-.5312482.931579-.8925c.2526328-.3612518.410526-.7862476.4736842-1.275l.1263158-1.02zm10.9894737-17.308125h4.7368421l-3.3473684 24.0975h-4.7368421zm6.9473684 8.60625h4.5473684l-.2842105 2.10375h.0631579c.1894746-.2975015.4421037-.5949985.7578948-.8925.315791-.2975015.6736822-.5631238 1.0736842-.796875s.852629-.42499926 1.3578947-.57375 1.0421024-.223125 1.6105263-.223125c1.0736896 0 1.9999961.22312277 2.7789474.669375.7789512.4462522 1.3052618 1.1474952 1.5789474 2.10375.6947403-.998755 1.4578905-1.7106229 2.2894736-2.135625.8315831-.42500213 1.8157838-.6375 2.9526316-.6375 1.0315841 0 1.873681.17531075 2.5263158.5259375.6526348.3506268 1.1473667.828747 1.4842105 1.434375s.5368418 1.3174959.6 2.135625.0315796 1.6946828-.0947368 2.6296875l-1.2631579 9.148125h-4.7368421l1.2315789-9.020625c.1052637-.7225036.0421065-1.3440599-.1894736-1.8646875-.2315802-.5206276-.7368383-.7809375-1.5157895-.7809375-.5473712 0-1.0157875.0903116-1.4052632.2709375-.3894756.1806259-.7210512.4303109-.9947368.7490625s-.4842098.6906229-.631579 1.115625c-.1473691.4250021-.2526312.8712477-.3157894 1.33875l-1.1368421 8.191875h-4.7368422l1.1368422-8.191875c.0421054-.2762514.0789472-.616248.1105263-1.02s.0105267-.7862482-.0631579-1.1475-.2368409-.6693737-.4894737-.924375c-.2526329-.2550013-.6526289-.3825-1.2-.3825-.6105294 0-1.1210506.1115614-1.531579.3346875-.4105283.2231261-.742104.5206231-.9947368.8925s-.4421046.7915602-.5684211 1.2590625c-.1263164.4675023-.2210523.9562474-.2842105 1.46625l-1.0736842 7.71375h-4.7368421z" fill="#4f4f4f"/><path d="m76.4210526 13.8975c.084211-.5525028.1473682-1.1049972.1894737-1.6575l.1263158-1.6575h2.2421053l-.3157895 2.263125h.0631579c.315791-.4250021.6736822-.8021859 1.0736842-1.1315625s.8263135-.6056239 1.2789474-.82875c.4526338-.2231261.9157871-.3931244 1.3894737-.51.4736865-.1168756.9315767-.1753125 1.3736842-.1753125.400002 0 .8210504.0424996 1.2631579.1275.4421074.0850004.8578927.2390614 1.2473684.4621875.3894756.2231261.7421037.5365605 1.0578947.9403125.3157911.403752.5578939.9243718.7263158 1.561875.2736856-.4675023.6105243-.8924981 1.0105263-1.275s.8315767-.7118736 1.2947369-.988125.9473659-.4834368 1.4526315-.6215625c.5052657-.1381257 1.0105238-.2071875 1.5157895-.2071875 1.8947463 0 3.226312.5046825 3.9947369 1.5140625s1.026317 2.4490532.7736842 4.3190625l-1.3263158 9.466875h-2.0842105l1.2-8.701875c.1052636-.7650038.1421054-1.4343721.1105263-2.008125s-.1631568-1.062498-.3947369-1.46625-.5736819-.7065615-1.0263158-.9084375c-.4526338-.201876-1.0368385-.3028125-1.7526315-.3028125-.7789513 0-1.4526288.154061-2.0210527.4621875s-1.0526296.717185-1.4526316 1.2271875c-.400002.5100026-.7210514 1.0890593-.9631578 1.7371875-.2421065.6481282-.4052628 1.322809-.4894737 2.0240625l-1.1052632 7.936875h-2.0842105l1.2-8.701875c.1052637-.7650038.1421054-1.4343721.1105263-2.008125s-.1631567-1.062498-.3947368-1.46625-.573682-.7065615-1.0263158-.9084375c-.4526339-.201876-1.0368386-.3028125-1.7526316-.3028125-.1263164 0-.4210503.0424996-.8842105.1275s-.9631552.3187481-1.5.70125-1.0526291.9562462-1.5473685 1.72125c-.4947393.7650038-.8368411 1.8274932-1.0263157 3.1875l-1.0736843 7.65h-2.0842105zm37.9894734 2.99625c.189475-1.4237571-.07368-2.5765581-.789473-3.4584375s-1.831572-1.3228125-3.347369-1.3228125c-.673687 0-1.342102.1328112-2.005263.3984375s-1.263155.6215603-1.8 1.0678125-.989472.9562471-1.357895 1.53-.594736 1.1687469-.678947 1.785zm-10.294737 1.72125c-.042105.7437537.042105 1.4449967.252632 2.10375s.521051 1.2271851.931579 1.7053125.915786.8553111 1.515789 1.1315625 1.268418.414375 2.005264.414375c1.115795 0 2.115785-.2603099 3-.7809375s1.578944-1.1209341 2.08421-1.8009375l1.421053 1.33875c-1.031584 1.1262556-2.115784 1.9337476-3.252632 2.4225s-2.315783.733125-3.536842.733125c-1.094742 0-2.078943-.1965605-2.952631-.5896875-.873689-.393127-1.605261-.940309-2.194737-1.6415625-.589477-.7012535-1.010525-1.5299952-1.263158-2.48625s-.294738-1.9974944-.126316-3.12375c.147369-1.1262556.478945-2.1674952.994737-3.12375s1.157891-1.7849965 1.926316-2.48625 1.631574-1.2484355 2.589473-1.6415625c.9579-.393127 1.963153-.5896875 3.01579-.5896875 1.115795 0 2.089469.201873 2.921052.605625.831584.403752 1.499998.9403092 2.005264 1.6096875.505265.6693783.857893 1.4556205 1.057894 2.35875s.226317 1.8646824.078948 2.8846875l-.157895.95625zm17.463158-.57375c-.126316.8287541-.110527 1.6043714.047369 2.326875.157895.7225036.442103 1.3493723.852631 1.880625.410529.5312527.942102.950936 1.594737 1.2590625s1.410522.4621875 2.273684.4621875c.84211 0 1.647365-.154061 2.41579-.4621875s1.452628-.7278098 2.052631-1.2590625 1.094735-1.1581214 1.484211-1.880625.647368-1.4981209.773684-2.326875c.126317-.8287541.089475-1.6043714-.110526-2.326875s-.526314-1.3493723-.978947-1.880625c-.452634-.5312527-1.02105-.950936-1.705264-1.2590625s-1.447364-.4621875-2.289473-.4621875c-.863163 0-1.657891.154061-2.384211.4621875-.726319.3081265-1.368418.7278098-1.926316 1.2590625-.557897.5312527-1.015787 1.1581214-1.373684 1.880625-.357896.7225036-.599999 1.4981209-.726316 2.326875zm12.442106 7.45875h-2.084211l.347369-2.48625h-.063158c-.421055.5100025-.884208.9456232-1.389474 1.306875s-1.031576.6587488-1.578947.8925c-.547372.2337512-1.094735.4037495-1.642106.51s-1.063155.159375-1.547368.159375c-1.157901 0-2.189469-.1965605-3.094737-.5896875s-1.657892-.940309-2.257895-1.6415625-1.026314-1.5299952-1.278947-2.48625-.294738-1.9974944-.126316-3.12375c.147369-1.1262556.484208-2.1674952 1.010526-3.12375.526319-.9562548 1.184207-1.7849965 1.973685-2.48625.789477-.7012535 1.689468-1.2484355 2.7-1.6415625 1.010531-.393127 2.094731-.5896875 3.252631-.5896875.484213 0 .989471.0531245 1.51579.159375.526318.1062505 1.026313.2762488 1.5.51.473686.2337512.915787.5312482 1.326316.8925.410528.3612518.75263.7968724 1.026315 1.306875h.063158l1.610527-11.66625h2.08421zm10.452631-20.655c-.063158.44625223-.273682.81281107-.631579 1.0996875-.357896.28687643-.726314.4303125-1.105263.4303125s-.705262-.14343607-.978947-.4303125c-.273686-.28687643-.378948-.65343527-.31579-1.0996875s.273683-.81281107.631579-1.0996875c.357897-.28687643.726314-.4303125 1.105263-.4303125.37895 0 .705262.14343607.978948.4303125.273685.28687643.378947.65343527.315789 1.0996875zm-3.347368 20.655h-2.084211l2.084211-14.9175h2.08421zm14.463158-7.426875c-.526319 0-1.184207.0265622-1.973685.0796875-.789477.0531253-1.563154.180624-2.321052.3825-.757899.201876-1.426313.5153104-2.005263.9403125-.578951.4250021-.921052 1.0093713-1.026316 1.753125-.063158.4887524-.021053.9084357.126316 1.2590625s.373682.6374989.678947.860625.657893.3824995 1.057895.478125.810524.1434375 1.231579.1434375c.757898 0 1.436839-.1274987 2.036842-.3825s1.110524-.6003103 1.531579-1.0359375.763156-.9456221 1.026316-1.53c.263159-.5843779.447367-1.2059342.552631-1.8646875l.157895-1.08375zm1.294737-1.72125.063157-.3825c.336844-2.5712629-.747355-3.856875-3.252631-3.856875-1.726325 0-3.315782.5843692-4.768421 1.753125l-1.042105-1.498125c.778951-.7012535 1.715784-1.2378106 2.810526-1.6096875s2.336835-.5578125 3.726316-.5578125c.715793 0 1.38947.1062489 2.021052.31875s1.163156.5365603 1.594737.9721875.747368.9828092.947369 1.6415625.236842 1.4449954.110526 2.35875l-.91579 6.661875c-.084211.5737529-.142105 1.1740594-.173684 1.8009375s-.047368 1.1421855-.047368 1.5459375h-2.021053c-.021053-.3612518-.01579-.7543729.01579-1.179375.031579-.4250021.078947-.839373.142105-1.243125h-.063158c-.736846.998755-1.55789 1.7159353-2.463158 2.1515625s-1.957889.6534375-3.157895.6534375c-.652635 0-1.273681-.0903116-1.863158-.2709375-.589476-.1806259-1.089471-.4568731-1.5-.82875-.410528-.3718769-.721051-.8287473-.931579-1.370625-.210527-.5418777-.263158-1.1740589-.157894-1.8965625.168422-1.2112561.610522-2.162184 1.326316-2.8528125.715793-.6906285 1.563153-1.2059358 2.542105-1.5459375s2.005258-.5524996 3.078947-.6375c1.07369-.0850004 2.052627-.1275 2.936842-.1275z" fill="#9d9d9d"/></g></svg>